<?xml version="1.0" encoding="UTF-8" standalone="no"?>
<!DOCTYPE svg PUBLIC "-//W3C//DTD SVG 1.1//EN"
 "http://www.w3.org/Graphics/SVG/1.1/DTD/svg11.dtd">
<!-- Generated by graphviz version 2.43.0 (0)
 -->
<!-- Title: sourcetree Pages: 1 -->
<svg width="540pt" height="116pt"
 viewBox="0.00 0.00 539.50 116.00" xmlns="http://www.w3.org/2000/svg" xmlns:xlink="http://www.w3.org/1999/xlink">
<g id="graph0" class="graph" transform="scale(1 1) rotate(0) translate(4 112)">
<title>sourcetree</title>
<polygon fill="white" stroke="transparent" points="-4,4 -4,-112 535.5,-112 535.5,4 -4,4"/>
<!-- MulleFoundation&#45;startup -->
<g id="node1" class="node">
<title>MulleFoundation&#45;startup</title>
<polygon fill="yellow" stroke="black" points="335,-108 141,-108 141,-72 335,-72 335,-108"/>
<text text-anchor="middle" x="238" y="-86.3" font-family="Times,serif" font-size="14.00">MulleFoundation&#45;startup</text>
</g>
<!-- mulle&#45;atexit -->
<g id="node2" class="node">
<title>mulle&#45;atexit</title>
<g id="a_node2"><a xlink:href="https://github.com/mulle-core/mulle-atexit" xlink:title="mulle&#45;atexit">
<polygon fill="lightgrey" stroke="black" points="102,-36 0,-36 0,0 102,0 102,-36"/>
<text text-anchor="middle" x="51" y="-14.3" font-family="Times,serif" font-size="14.00">mulle&#45;atexit</text>
</a>
</g>
</g>
<!-- MulleFoundation&#45;startup&#45;&gt;mulle&#45;atexit -->
<g id="edge1" class="edge">
<title>MulleFoundation&#45;startup&#45;&gt;mulle&#45;atexit</title>
<path fill="none" stroke="black" d="M192.25,-71.88C166.24,-62.14 133.47,-49.87 106.05,-39.61"/>
<polygon fill="black" stroke="black" points="107.19,-36.3 96.6,-36.07 104.74,-42.85 107.19,-36.3"/>
</g>
<!-- mulle&#45;atinit -->
<g id="node3" class="node">
<title>mulle&#45;atinit</title>
<g id="a_node3"><a xlink:href="https://github.com/mulle-core/mulle-atinit" xlink:title="mulle&#45;atinit">
<polygon fill="lightgrey" stroke="black" points="219.5,-36 120.5,-36 120.5,0 219.5,0 219.5,-36"/>
<text text-anchor="middle" x="170" y="-14.3" font-family="Times,serif" font-size="14.00">mulle&#45;atinit</text>
</a>
</g>
</g>
<!-- MulleFoundation&#45;startup&#45;&gt;mulle&#45;atinit -->
<g id="edge2" class="edge">
<title>MulleFoundation&#45;startup&#45;&gt;mulle&#45;atinit</title>
<path fill="none" stroke="black" d="M221.19,-71.7C212.87,-63.14 202.69,-52.66 193.61,-43.3"/>
<polygon fill="black" stroke="black" points="196.09,-40.84 186.62,-36.1 191.07,-45.72 196.09,-40.84"/>
</g>
<!-- MulleFoundation -->
<g id="node4" class="node">
<title>MulleFoundation</title>
<g id="a_node4"><a xlink:href="https://github.com/MulleFoundation/MulleFoundation" xlink:title="MulleFoundation">
<polygon fill="lightgrey" stroke="black" points="374.5,-36 237.5,-36 237.5,0 374.5,0 374.5,-36"/>
<text text-anchor="middle" x="306" y="-14.3" font-family="Times,serif" font-size="14.00">MulleFoundation</text>
</a>
</g>
</g>
<!-- MulleFoundation&#45;startup&#45;&gt;MulleFoundation -->
<g id="edge3" class="edge">
<title>MulleFoundation&#45;startup&#45;&gt;MulleFoundation</title>
<path fill="none" stroke="black" d="M254.81,-71.7C263.13,-63.14 273.31,-52.66 282.39,-43.3"/>
<polygon fill="black" stroke="black" points="284.93,-45.72 289.38,-36.1 279.91,-40.84 284.93,-45.72"/>
</g>
<!-- mulle&#45;objc&#45;debug -->
<g id="node5" class="node">
<title>mulle&#45;objc&#45;debug</title>
<g id="a_node5"><a xlink:href="https://github.com/mulle-objc/mulle-objc-debug" xlink:title="mulle&#45;objc&#45;debug">
<polygon fill="lightgrey" stroke="black" points="531.5,-36 392.5,-36 392.5,0 531.5,0 531.5,-36"/>
<text text-anchor="middle" x="462" y="-14.3" font-family="Times,serif" font-size="14.00">mulle&#45;objc&#45;debug</text>
</a>
</g>
</g>
<!-- MulleFoundation&#45;startup&#45;&gt;mulle&#45;objc&#45;debug -->
<g id="edge4" class="edge">
<title>MulleFoundation&#45;startup&#45;&gt;mulle&#45;objc&#45;debug</title>
<path fill="none" stroke="black" d="M292.51,-71.97C324.22,-62.06 364.36,-49.51 397.61,-39.12"/>
<polygon fill="black" stroke="black" points="398.74,-42.43 407.25,-36.11 396.66,-35.75 398.74,-42.43"/>
</g>
</g>
</svg>
