<?xml version="1.0" encoding="UTF-8" standalone="no"?>
<!DOCTYPE svg PUBLIC "-//W3C//DTD SVG 1.1//EN"
 "http://www.w3.org/Graphics/SVG/1.1/DTD/svg11.dtd">
<!-- Generated by graphviz version 2.43.0 (0)
 -->
<!-- Title: sourcetree Pages: 1 -->
<svg width="1808pt" height="260pt"
 viewBox="0.00 0.00 1807.50 260.00" xmlns="http://www.w3.org/2000/svg" xmlns:xlink="http://www.w3.org/1999/xlink">
<g id="graph0" class="graph" transform="scale(1 1) rotate(0) translate(4 256)">
<title>sourcetree</title>
<polygon fill="white" stroke="transparent" points="-4,4 -4,-256 1803.5,-256 1803.5,4 -4,4"/>
<!-- MulleFoundation&#45;startup -->
<g id="node1" class="node">
<title>MulleFoundation&#45;startup</title>
<polygon fill="yellow" stroke="black" points="952,-252 758,-252 758,-216 952,-216 952,-252"/>
<text text-anchor="middle" x="855" y="-230.3" font-family="Times,serif" font-size="14.00">MulleFoundation&#45;startup</text>
</g>
<!-- mulle&#45;atinit -->
<g id="node2" class="node">
<title>mulle&#45;atinit</title>
<polygon fill="lightgrey" stroke="black" points="492.5,-180 393.5,-180 393.5,-144 492.5,-144 492.5,-180"/>
<text text-anchor="middle" x="443" y="-158.3" font-family="Times,serif" font-size="14.00">mulle&#45;atinit</text>
</g>
<!-- MulleFoundation&#45;startup&#45;&gt;mulle&#45;atinit -->
<g id="edge11" class="edge">
<title>MulleFoundation&#45;startup&#45;&gt;mulle&#45;atinit</title>
<path fill="none" stroke="black" d="M757.88,-216.5C678.68,-203.04 569.35,-184.47 502.56,-173.12"/>
<polygon fill="black" stroke="black" points="503.06,-169.65 492.62,-171.43 501.89,-176.56 503.06,-169.65"/>
</g>
<!-- MulleFoundation -->
<g id="node5" class="node">
<title>MulleFoundation</title>
<polygon fill="lightgrey" stroke="black" points="923.5,-180 786.5,-180 786.5,-144 923.5,-144 923.5,-180"/>
<text text-anchor="middle" x="855" y="-158.3" font-family="Times,serif" font-size="14.00">MulleFoundation</text>
</g>
<!-- MulleFoundation&#45;startup&#45;&gt;MulleFoundation -->
<g id="edge12" class="edge">
<title>MulleFoundation&#45;startup&#45;&gt;MulleFoundation</title>
<path fill="none" stroke="black" d="M855,-215.7C855,-207.98 855,-198.71 855,-190.11"/>
<polygon fill="black" stroke="black" points="858.5,-190.1 855,-180.1 851.5,-190.1 858.5,-190.1"/>
</g>
<!-- mulle&#45;atexit -->
<g id="node13" class="node">
<title>mulle&#45;atexit</title>
<polygon fill="lightgrey" stroke="black" points="1044,-180 942,-180 942,-144 1044,-144 1044,-180"/>
<text text-anchor="middle" x="993" y="-158.3" font-family="Times,serif" font-size="14.00">mulle&#45;atexit</text>
</g>
<!-- MulleFoundation&#45;startup&#45;&gt;mulle&#45;atexit -->
<g id="edge10" class="edge">
<title>MulleFoundation&#45;startup&#45;&gt;mulle&#45;atexit</title>
<path fill="none" stroke="black" d="M888.76,-215.88C907.22,-206.51 930.28,-194.81 950.02,-184.8"/>
<polygon fill="black" stroke="black" points="951.78,-187.83 959.11,-180.19 948.61,-181.59 951.78,-187.83"/>
</g>
<!-- mulle&#45;dlfcn -->
<g id="node3" class="node">
<title>mulle&#45;dlfcn</title>
<polygon fill="lightgrey" stroke="black" points="98,-108 2,-108 2,-72 98,-72 98,-108"/>
<text text-anchor="middle" x="50" y="-86.3" font-family="Times,serif" font-size="14.00">mulle&#45;dlfcn</text>
</g>
<!-- mulle&#45;atinit&#45;&gt;mulle&#45;dlfcn -->
<g id="edge1" class="edge">
<title>mulle&#45;atinit&#45;&gt;mulle&#45;dlfcn</title>
<path fill="none" stroke="black" d="M393.36,-155.27C329.44,-147.44 214.84,-131.82 108.06,-108.08"/>
<polygon fill="black" stroke="black" points="108.61,-104.61 98.08,-105.83 107.07,-111.44 108.61,-104.61"/>
</g>
<!-- dlfcn&#45;win32 -->
<g id="node4" class="node">
<title>dlfcn&#45;win32</title>
<polygon fill="lightgrey" stroke="black" points="100,-36 0,-36 0,0 100,0 100,-36"/>
<text text-anchor="middle" x="50" y="-14.3" font-family="Times,serif" font-size="14.00">dlfcn&#45;win32</text>
</g>
<!-- mulle&#45;dlfcn&#45;&gt;dlfcn&#45;win32 -->
<g id="edge2" class="edge">
<title>mulle&#45;dlfcn&#45;&gt;dlfcn&#45;win32</title>
<path fill="none" stroke="black" d="M50,-71.7C50,-63.98 50,-54.71 50,-46.11"/>
<polygon fill="black" stroke="black" points="53.5,-46.1 50,-36.1 46.5,-46.1 53.5,-46.1"/>
</g>
<!-- MulleObjCArchiverFoundation -->
<g id="node6" class="node">
<title>MulleObjCArchiverFoundation</title>
<polygon fill="lightgrey" stroke="black" points="349.5,-108 116.5,-108 116.5,-72 349.5,-72 349.5,-108"/>
<text text-anchor="middle" x="233" y="-86.3" font-family="Times,serif" font-size="14.00">MulleObjCArchiverFoundation</text>
</g>
<!-- MulleFoundation&#45;&gt;MulleObjCArchiverFoundation -->
<g id="edge3" class="edge">
<title>MulleFoundation&#45;&gt;MulleObjCArchiverFoundation</title>
<path fill="none" stroke="black" d="M786.19,-154.3C692.26,-145.01 518.36,-127.3 360.16,-108.24"/>
<polygon fill="black" stroke="black" points="360.11,-104.71 349.76,-106.99 359.27,-111.66 360.11,-104.71"/>
</g>
<!-- MulleObjCCalendarFoundation -->
<g id="node7" class="node">
<title>MulleObjCCalendarFoundation</title>
<polygon fill="lightgrey" stroke="black" points="604.5,-108 367.5,-108 367.5,-72 604.5,-72 604.5,-108"/>
<text text-anchor="middle" x="486" y="-86.3" font-family="Times,serif" font-size="14.00">MulleObjCCalendarFoundation</text>
</g>
<!-- MulleFoundation&#45;&gt;MulleObjCCalendarFoundation -->
<g id="edge4" class="edge">
<title>MulleFoundation&#45;&gt;MulleObjCCalendarFoundation</title>
<path fill="none" stroke="black" d="M786.46,-148C730.07,-137.3 649.39,-122 585.83,-109.94"/>
<polygon fill="black" stroke="black" points="586.26,-106.46 575.78,-108.03 584.96,-113.33 586.26,-106.46"/>
</g>
<!-- MulleObjCDecimalFoundation -->
<g id="node8" class="node">
<title>MulleObjCDecimalFoundation</title>
<polygon fill="lightgrey" stroke="black" points="853,-108 623,-108 623,-72 853,-72 853,-108"/>
<text text-anchor="middle" x="738" y="-86.3" font-family="Times,serif" font-size="14.00">MulleObjCDecimalFoundation</text>
</g>
<!-- MulleFoundation&#45;&gt;MulleObjCDecimalFoundation -->
<g id="edge5" class="edge">
<title>MulleFoundation&#45;&gt;MulleObjCDecimalFoundation</title>
<path fill="none" stroke="black" d="M826.38,-143.88C811.08,-134.72 792.06,-123.34 775.58,-113.48"/>
<polygon fill="black" stroke="black" points="777.11,-110.32 766.73,-108.19 773.52,-116.33 777.11,-110.32"/>
</g>
<!-- MulleObjCKVCFoundation -->
<g id="node9" class="node">
<title>MulleObjCKVCFoundation</title>
<polygon fill="lightgrey" stroke="black" points="1074.5,-108 871.5,-108 871.5,-72 1074.5,-72 1074.5,-108"/>
<text text-anchor="middle" x="973" y="-86.3" font-family="Times,serif" font-size="14.00">MulleObjCKVCFoundation</text>
</g>
<!-- MulleFoundation&#45;&gt;MulleObjCKVCFoundation -->
<g id="edge6" class="edge">
<title>MulleFoundation&#45;&gt;MulleObjCKVCFoundation</title>
<path fill="none" stroke="black" d="M883.87,-143.88C899.29,-134.72 918.48,-123.34 935.1,-113.48"/>
<polygon fill="black" stroke="black" points="937.21,-116.3 944.02,-108.19 933.64,-110.28 937.21,-116.3"/>
</g>
<!-- MulleObjCMathFoundation -->
<g id="node10" class="node">
<title>MulleObjCMathFoundation</title>
<polygon fill="lightgrey" stroke="black" points="1303,-108 1093,-108 1093,-72 1303,-72 1303,-108"/>
<text text-anchor="middle" x="1198" y="-86.3" font-family="Times,serif" font-size="14.00">MulleObjCMathFoundation</text>
</g>
<!-- MulleFoundation&#45;&gt;MulleObjCMathFoundation -->
<g id="edge7" class="edge">
<title>MulleFoundation&#45;&gt;MulleObjCMathFoundation</title>
<path fill="none" stroke="black" d="M923.89,-145.92C926.97,-145.27 930.02,-144.62 933,-144 988.54,-132.39 1050.75,-119.93 1100.93,-110"/>
<polygon fill="black" stroke="black" points="1101.66,-113.42 1110.79,-108.05 1100.31,-106.55 1101.66,-113.42"/>
</g>
<!-- MulleObjCOSFoundation -->
<g id="node11" class="node">
<title>MulleObjCOSFoundation</title>
<polygon fill="lightgrey" stroke="black" points="1515,-108 1321,-108 1321,-72 1515,-72 1515,-108"/>
<text text-anchor="middle" x="1418" y="-86.3" font-family="Times,serif" font-size="14.00">MulleObjCOSFoundation</text>
</g>
<!-- MulleFoundation&#45;&gt;MulleObjCOSFoundation -->
<g id="edge8" class="edge">
<title>MulleFoundation&#45;&gt;MulleObjCOSFoundation</title>
<path fill="none" stroke="black" d="M923.82,-145.53C926.92,-144.98 929.99,-144.47 933,-144 1097,-118.43 1142.44,-128.98 1311.03,-108.07"/>
<polygon fill="black" stroke="black" points="1311.51,-111.54 1320.99,-106.81 1310.63,-104.59 1311.51,-111.54"/>
</g>
<!-- MulleObjCUnicodeFoundation -->
<g id="node12" class="node">
<title>MulleObjCUnicodeFoundation</title>
<polygon fill="lightgrey" stroke="black" points="1763.5,-108 1532.5,-108 1532.5,-72 1763.5,-72 1763.5,-108"/>
<text text-anchor="middle" x="1648" y="-86.3" font-family="Times,serif" font-size="14.00">MulleObjCUnicodeFoundation</text>
</g>
<!-- MulleFoundation&#45;&gt;MulleObjCUnicodeFoundation -->
<g id="edge9" class="edge">
<title>MulleFoundation&#45;&gt;MulleObjCUnicodeFoundation</title>
<path fill="none" stroke="black" d="M923.8,-145.4C926.9,-144.89 929.98,-144.42 933,-144 1190.35,-108.33 1260.35,-133.24 1522.01,-108.15"/>
<polygon fill="black" stroke="black" points="1522.58,-111.61 1532.19,-107.16 1521.9,-104.64 1522.58,-111.61"/>
</g>
<!-- src/BSD -->
<g id="node14" class="node">
<title>src/BSD</title>
<polygon fill="lightgrey" stroke="black" points="1120,-36 1046,-36 1046,0 1120,0 1120,-36"/>
<text text-anchor="middle" x="1083" y="-14.3" font-family="Times,serif" font-size="14.00">src/BSD</text>
</g>
<!-- MulleObjCOSFoundation&#45;&gt;src/BSD -->
<g id="edge13" class="edge">
<title>MulleObjCOSFoundation&#45;&gt;src/BSD</title>
<path fill="none" stroke="black" d="M1320.79,-73.02C1256.31,-62.1 1176.57,-47.88 1130.17,-36.02"/>
<polygon fill="black" stroke="black" points="1130.79,-32.57 1120.23,-33.37 1128.99,-39.33 1130.79,-32.57"/>
</g>
<!-- src/Darwin -->
<g id="node15" class="node">
<title>src/Darwin</title>
<polygon fill="lightgrey" stroke="black" points="1233.5,-36 1138.5,-36 1138.5,0 1233.5,0 1233.5,-36"/>
<text text-anchor="middle" x="1186" y="-14.3" font-family="Times,serif" font-size="14.00">src/Darwin</text>
</g>
<!-- MulleObjCOSFoundation&#45;&gt;src/Darwin -->
<g id="edge14" class="edge">
<title>MulleObjCOSFoundation&#45;&gt;src/Darwin</title>
<path fill="none" stroke="black" d="M1361.54,-71.97C1325.74,-61.16 1279.56,-47.23 1243.56,-36.37"/>
<polygon fill="black" stroke="black" points="1244.27,-32.93 1233.69,-33.39 1242.25,-39.63 1244.27,-32.93"/>
</g>
<!-- src/FreeBSD -->
<g id="node16" class="node">
<title>src/FreeBSD</title>
<polygon fill="lightgrey" stroke="black" points="1358.5,-36 1251.5,-36 1251.5,0 1358.5,0 1358.5,-36"/>
<text text-anchor="middle" x="1305" y="-14.3" font-family="Times,serif" font-size="14.00">src/FreeBSD</text>
</g>
<!-- MulleObjCOSFoundation&#45;&gt;src/FreeBSD -->
<g id="edge15" class="edge">
<title>MulleObjCOSFoundation&#45;&gt;src/FreeBSD</title>
<path fill="none" stroke="black" d="M1390.36,-71.88C1375.58,-62.72 1357.21,-51.34 1341.3,-41.48"/>
<polygon fill="black" stroke="black" points="1343.09,-38.48 1332.75,-36.19 1339.41,-44.43 1343.09,-38.48"/>
</g>
<!-- src/Linux -->
<g id="node17" class="node">
<title>src/Linux</title>
<polygon fill="lightgrey" stroke="black" points="1459.5,-36 1376.5,-36 1376.5,0 1459.5,0 1459.5,-36"/>
<text text-anchor="middle" x="1418" y="-14.3" font-family="Times,serif" font-size="14.00">src/Linux</text>
</g>
<!-- MulleObjCOSFoundation&#45;&gt;src/Linux -->
<g id="edge16" class="edge">
<title>MulleObjCOSFoundation&#45;&gt;src/Linux</title>
<path fill="none" stroke="black" d="M1418,-71.7C1418,-63.98 1418,-54.71 1418,-46.11"/>
<polygon fill="black" stroke="black" points="1421.5,-46.1 1418,-36.1 1414.5,-46.1 1421.5,-46.1"/>
</g>
<!-- src/OSBase -->
<g id="node18" class="node">
<title>src/OSBase</title>
<polygon fill="lightgrey" stroke="black" points="1576,-36 1478,-36 1478,0 1576,0 1576,-36"/>
<text text-anchor="middle" x="1527" y="-14.3" font-family="Times,serif" font-size="14.00">src/OSBase</text>
</g>
<!-- MulleObjCOSFoundation&#45;&gt;src/OSBase -->
<g id="edge17" class="edge">
<title>MulleObjCOSFoundation&#45;&gt;src/OSBase</title>
<path fill="none" stroke="black" d="M1444.66,-71.88C1458.78,-62.81 1476.31,-51.55 1491.56,-41.76"/>
<polygon fill="black" stroke="black" points="1493.71,-44.54 1500.23,-36.19 1489.93,-38.65 1493.71,-44.54"/>
</g>
<!-- src/Posix -->
<g id="node19" class="node">
<title>src/Posix</title>
<polygon fill="lightgrey" stroke="black" points="1674,-36 1594,-36 1594,0 1674,0 1674,-36"/>
<text text-anchor="middle" x="1634" y="-14.3" font-family="Times,serif" font-size="14.00">src/Posix</text>
</g>
<!-- MulleObjCOSFoundation&#45;&gt;src/Posix -->
<g id="edge18" class="edge">
<title>MulleObjCOSFoundation&#45;&gt;src/Posix</title>
<path fill="none" stroke="black" d="M1473.03,-71.94C1503.35,-62.45 1541.89,-50.23 1584.24,-36.21"/>
<polygon fill="black" stroke="black" points="1585.53,-39.47 1593.92,-33 1583.32,-32.83 1585.53,-39.47"/>
</g>
<!-- src/Windows -->
<g id="node20" class="node">
<title>src/Windows</title>
<polygon fill="lightgrey" stroke="black" points="1799.5,-36 1692.5,-36 1692.5,0 1799.5,0 1799.5,-36"/>
<text text-anchor="middle" x="1746" y="-14.3" font-family="Times,serif" font-size="14.00">src/Windows</text>
</g>
<!-- MulleObjCOSFoundation&#45;&gt;src/Windows -->
<g id="edge19" class="edge">
<title>MulleObjCOSFoundation&#45;&gt;src/Windows</title>
<path fill="none" stroke="black" d="M1510.92,-71.98C1559.31,-62.74 1619.64,-50.65 1682.36,-36.07"/>
<polygon fill="black" stroke="black" points="1683.51,-39.4 1692.44,-33.71 1681.91,-32.58 1683.51,-39.4"/>
</g>
</g>
</svg>
